<?xml version="1.0" encoding="UTF-8" standalone="no"?><!DOCTYPE svg PUBLIC "-//W3C//DTD SVG 1.1//EN" "http://www.w3.org/Graphics/SVG/1.1/DTD/svg11.dtd"><svg width="100%" height="100%" viewBox="0 0 464 109" version="1.1" xmlns="http://www.w3.org/2000/svg" xmlns:xlink="http://www.w3.org/1999/xlink" xml:space="preserve" xmlns:serif="http://www.serif.com/" style="fill-rule:evenodd;clip-rule:evenodd;stroke-linejoin:round;stroke-miterlimit:1.41421;"><g><path d="M115.18,33.457c-5.9,0 -10.8,2.1 -14.8,6l1,-5l-21.3,0l-14.8,74.1l22.6,0l5.1,-25.2c3.3,4.9 8.9,6.8 15.6,6.8c15.7,0 29.1,-13.4 29.1,-31.4c0,-16.3 -11.6,-25.3 -22.5,-25.3Zm-10.3,38.9c-5.1,0 -8.1,-3.5 -8.1,-8.6c0,-7.6 4,-12.5 9.9,-12.5c5.1,0 8.1,3.5 8.1,8.6c0,7.6 -4,12.5 -9.9,12.5Z" style="fill:#fff;fill-rule:nonzero;"/><path d="M170.28,40.057l1.1,-5.6l-21.3,0l-10.9,54.7l22.6,0l5.1,-25.3c1.6,-7.7 6.2,-10.8 13.7,-10.8c1.6,0 3,0.1 4.9,0.4l4,-20c-7.8,0 -14.5,2 -19.2,6.6Z" style="fill:#fff;fill-rule:nonzero;"/><path d="M209.38,30.057c8.7,0 14.4,-5.2 14.4,-12.7c0,-6 -4.9,-10.3 -12.8,-10.3c-8.7,0 -14.4,5.3 -14.4,12.3c0,6 4.9,10.7 12.8,10.7Zm-24.6,59.1l22.5,0l10.9,-54.7l-22.5,0l-10.9,54.7Z" style="fill:#fff;fill-rule:nonzero;"/><path d="M264.78,33.457c-5.6,0 -11.6,2 -16.4,6.5l1.1,-5.5l-21.3,0l-10.9,54.7l22.6,0l5.3,-26.3c1.4,-7.1 5,-10.4 10.1,-10.4c3.8,0 5.7,2 5.7,5.9c0,1 -0.2,2.1 -0.4,3.3l-5.5,27.5l22.6,0l6,-30.2c0.5,-2.5 0.7,-4.8 0.7,-6.9c0,-12.4 -8.1,-18.6 -19.6,-18.6Z" style="fill:#fff;fill-rule:nonzero;"/><path d="M316.88,53.957l11.2,0l3.3,-16.5l-11.2,0l3.1,-15.3l-22.6,0l-9.1,45.6c-0.4,1.9 -0.6,3.7 -0.6,5.4c0,10.9 7.8,17 20,17c5.3,0 10.6,-0.9 14.8,-3.2l-2.6,-15.2c-1.7,0.8 -3.2,1.3 -5,1.3c-2.6,0 -4.2,-1.2 -4.2,-3.8c0,-0.5 0.1,-1 0.2,-1.6l2.7,-13.7Z" style="fill:#fff;fill-rule:nonzero;"/><path d="M399.28,73.057c-2.6,0 -4.4,-1 -4.4,-4c0,-0.5 0,-0.9 0.1,-1.4l6.6,-33.2l-22.6,0l-5.3,26.3c-1.4,7.1 -4.9,10.4 -9.9,10.4c-3.6,0 -5.5,-2 -5.5,-5.8c0,-1 0.2,-2.2 0.4,-3.4l5.5,-27.5l-22.6,0l-6,30.2c-0.5,2.5 -0.7,4.8 -0.7,6.9c0,12.4 8,18.6 19.4,18.6c6.6,0 13.8,-2.9 18.9,-9.4c2.2,5.5 8,9.4 17.6,9.4c3.3,0 6.4,-0.4 10,-1.4l2.4,-16.5c-1,0.5 -2.6,0.8 -3.9,0.8Z" style="fill:#fff;fill-rule:nonzero;"/><path d="M429.48,90.157c16.8,0 30.6,-6.8 30.6,-20.5c0,-18.3 -27.5,-13.1 -27.5,-18.1c0,-1.3 1.7,-2.7 6.9,-2.7c4.6,0 10.6,0.8 16.3,4.1l7.8,-15.4c-5.7,-2.6 -13.4,-4.1 -21.4,-4.1c-17.1,0 -30.8,6.6 -30.8,20.7c0,18.3 27.6,13.3 27.6,18c0,1.5 -1.7,2.6 -6.7,2.6c-6.1,0 -13.6,-1.7 -19,-5l-7.8,15.4c4.8,2.8 14.2,5 24,5Z" style="fill:#fff;fill-rule:nonzero;"/><path d="M26.719,0l60.443,0l-37.264,19.628l-3.58,14.896l27.639,0l-41.411,56.233l0.064,-0.267l-0.138,0.267l-32.472,0l37.988,-22.643l2.855,-11.881l-27.639,0l13.515,-56.233Z" style="fill:#fff;fill-rule:nonzero;"/></g></svg>